<svg width="201" height="201" viewBox="0 0 201 201" fill="none" xmlns="http://www.w3.org/2000/svg">
<path fill-rule="evenodd" clip-rule="evenodd" d="M195.277 134.012C195.853 132.382 196.389 130.733 196.882 129.067L32.3173 26.6657C31.0443 27.8419 29.8018 29.0505 28.5911 30.2904L195.277 134.012ZM27.9529 30.9499C26.571 32.3909 25.2317 33.8731 23.9368 35.3943L192.751 140.439C193.543 138.612 194.282 136.757 194.967 134.875L27.9529 30.9499ZM198.46 123.049C198.065 124.774 197.625 126.482 197.142 128.172L33.0045 26.0367C34.3099 24.8527 35.6466 23.7026 37.0131 22.5877L198.46 123.049ZM198.668 122.122C198.988 120.664 199.276 119.195 199.531 117.715L41.3167 19.2656C40.1077 20.1479 38.9192 21.0566 37.7519 21.9907L198.668 122.122ZM200.878 95.4964C200.775 93.3937 200.607 91.3079 200.376 89.2411L66.46 5.91108C64.4847 6.62203 62.5382 7.3931 60.6225 8.22206L200.878 95.4964ZM59.627 8.65928C57.5027 9.60614 55.4172 10.6246 53.3737 11.7115L200.955 103.544C200.985 102.533 201 101.518 201 100.5C201 99.188 200.975 97.8821 200.925 96.5825L59.627 8.65928ZM199.209 81.515C199.625 83.6864 199.97 85.8827 200.243 88.1013L67.5429 5.52832C69.6376 4.8015 71.7639 4.14203 73.919 3.5525L199.209 81.515ZM198.971 80.3102C189.625 34.4818 149.089 -0.000183105 100.5 -0.000183105C91.7279 -0.000183105 83.2183 1.12369 75.1073 3.2353L198.971 80.3102ZM200.429 111.274C200.233 113.117 199.986 114.946 199.692 116.758L42.1025 18.6979C43.6002 17.6268 45.1285 16.5959 46.6859 15.6066L200.429 111.274ZM20.1939 40.0652C21.2137 38.7122 22.267 37.3858 23.3524 36.0872L192.387 141.269C191.698 142.82 190.971 144.349 190.207 145.857L20.1939 40.0652ZM19.6552 40.7866L189.797 146.658C189.021 148.156 188.208 149.632 187.36 151.085L16.7521 44.9235C17.6858 43.5193 18.6539 42.14 19.6552 40.7866ZM184.214 156.127C185.145 154.728 186.042 153.305 186.904 151.858L16.2585 45.6731C15.3406 47.0806 14.457 48.5125 13.6089 49.9677L184.214 156.127ZM200.53 110.28C200.712 108.394 200.842 106.493 200.919 104.579L52.4634 12.2017C50.7898 13.1141 49.145 14.0726 47.5308 15.0757L200.53 110.28ZM183.713 156.872C182.765 158.268 181.784 159.639 180.769 160.984L10.7651 55.1981C11.5271 53.6916 12.3259 52.2069 13.1604 50.7452L183.713 156.872ZM177.023 165.653C178.122 164.363 179.189 163.045 180.223 161.701L10.362 56.0039C9.61194 57.5204 8.89904 59.0586 8.22447 60.6172L177.023 165.653ZM176.431 166.341C175.119 167.852 173.763 169.324 172.365 170.754L5.70182 67.0474C6.3694 65.1556 7.09201 63.2898 7.86772 61.4518L176.431 166.341ZM167.948 175.006C169.236 173.839 170.493 172.64 171.719 171.409L5.39977 67.9161C4.83836 69.5551 4.31813 71.2132 3.8403 72.8891L167.948 175.006ZM167.253 175.63C165.932 176.805 164.579 177.945 163.197 179.05L2.31769 78.9417C2.69685 77.2069 3.12081 75.4889 3.5883 73.7889L167.253 175.63ZM133.382 195.497C135.384 194.804 137.358 194.05 139.3 193.236L0.186439 106.672C0.314879 108.792 0.509036 110.894 0.766898 112.977L133.382 195.497ZM132.284 195.87C130.157 196.579 127.998 197.218 125.811 197.786L2.04554 120.772C1.59691 118.582 1.21954 116.366 0.915954 114.126L132.284 195.87ZM100.5 201C108.808 201 116.881 199.992 124.603 198.091L2.30263 121.989C12.1437 167.168 52.371 201 100.5 201ZM0.126068 105.578L140.309 192.807C142.46 191.878 144.572 190.876 146.642 189.805L0.0182061 98.5674C0.0060868 99.2101 0 99.8542 0 100.5C0 102.203 0.0423546 103.896 0.126068 105.578ZM0.043146 97.5263C0.0991357 95.5994 0.209366 93.6861 0.372362 91.7878L152.556 186.485C150.922 187.476 149.257 188.422 147.564 189.322L0.043146 97.5263ZM0.463245 90.7877L153.411 185.96C154.986 184.983 156.533 183.963 158.048 182.902L1.14657 85.2696C0.869316 87.0933 0.641079 88.9332 0.463245 90.7877ZM1.2977 84.307C1.53884 82.8182 1.8127 81.3404 2.1185 79.8744L162.45 179.641C161.269 180.567 160.066 181.467 158.843 182.34L1.2977 84.307Z" fill="url(#paint0_linear_54_12)" fill-opacity="0.5"/>
<defs>
<linearGradient id="paint0_linear_54_12" x1="24.4061" y1="40.2354" x2="156.406" y2="183.235" gradientUnits="userSpaceOnUse">
<stop stop-color="#FF662C"/>
<stop offset="0.49" stop-color="#4086EC"/>
<stop offset="1" stop-color="#222222"/>
</linearGradient>
</defs>
</svg>
