<svg width="201" height="201" viewBox="0 0 201 201" fill="none" xmlns="http://www.w3.org/2000/svg">
<path fill-rule="evenodd" clip-rule="evenodd" d="M196.882 129.067C196.389 130.733 195.853 132.382 195.277 134.012L162.627 113.695C163.001 111.926 163.301 110.13 163.524 108.31L196.882 129.067ZM163.638 107.324L197.142 128.172C197.625 126.482 198.065 124.774 198.46 123.049L163.991 101.6C163.958 103.53 163.839 105.439 163.638 107.324ZM71.4528 44.018C69.7504 44.8952 68.0927 45.8472 66.4842 46.8696L33.0045 26.0367C34.3099 24.8528 35.6466 23.7026 37.0131 22.5878L71.4528 44.018ZM164 100.549L198.668 122.122C198.988 120.664 199.276 119.195 199.531 117.715L163.805 95.4844C163.934 97.1392 164 98.8118 164 100.5C164 100.516 164 100.533 164 100.549ZM77.0199 41.4821C75.4447 42.1094 73.9005 42.7979 72.3903 43.5447L37.7519 21.9908C38.9192 21.0567 40.1077 20.148 41.3167 19.2657L77.0199 41.4821ZM163.708 94.3673L199.692 116.758C199.986 114.946 200.233 113.118 200.429 111.274L162.733 87.8177C163.168 89.9636 163.495 92.1488 163.708 94.3673ZM84.3822 39.0634C82.2301 39.6264 80.1226 40.2995 78.0659 41.0764L42.1025 18.698C43.6002 17.6269 45.1285 16.5959 46.6859 15.6066L84.3822 39.0634ZM162.474 86.5996L200.53 110.28C200.712 108.394 200.842 106.493 200.919 104.579L160.398 79.3643C161.227 81.7157 161.923 84.1305 162.474 86.5996ZM93.0166 37.4361C90.4936 37.7323 88.0158 38.1764 85.5921 38.7596L47.5308 15.0758C49.145 14.0727 50.7898 13.1141 52.4634 12.2017L93.0166 37.4361ZM159.897 77.9961L200.955 103.544C200.985 102.533 201 101.518 201 100.5C201 99.1881 200.975 97.8822 200.925 96.5826L155.107 68.0723C156.978 71.2152 158.584 74.5333 159.897 77.9961ZM105.481 37.1923C103.838 37.0648 102.176 36.9998 100.5 36.9998C98.4656 36.9998 96.4535 37.0955 94.468 37.2826L53.3737 11.7115C55.4172 10.6246 57.5027 9.6062 59.627 8.65934L105.481 37.1923ZM154.05 66.3575L200.878 95.4964C200.775 93.3937 200.607 91.308 200.376 89.2412L143.749 54.0045C147.68 57.6624 151.146 61.8129 154.05 66.3575ZM123.033 41.1137C118.111 39.2455 112.898 37.9714 107.479 37.379L60.6225 8.22212C62.5382 7.39316 64.4847 6.62209 66.46 5.91115L123.033 41.1137ZM138.963 49.9696C135.78 47.5431 132.361 45.4105 128.746 43.6123L67.5429 5.52838C69.6376 4.80156 71.7639 4.14209 73.919 3.55256L199.209 81.515C199.625 83.6865 199.97 85.8827 200.243 88.1014L138.963 49.9696ZM65.6515 47.4081C64.1296 48.409 62.6534 49.4736 61.2266 50.598L28.5911 30.2904C29.8018 29.0506 31.0443 27.8419 32.3173 26.6658L65.6515 47.4081ZM60.4838 51.1925L27.9529 30.95C26.571 32.391 25.2317 33.8731 23.9368 35.3943L55.9098 55.2896C57.3671 53.8521 58.8936 52.4846 60.4838 51.1925ZM160.773 120.541L192.751 140.44C193.543 138.612 194.282 136.757 194.967 134.875L162.423 114.625C161.967 116.635 161.415 118.608 160.773 120.541ZM160.476 121.413L192.387 141.269C191.698 142.82 190.971 144.349 190.207 145.857L158.591 126.184C159.281 124.625 159.911 123.034 160.476 121.413ZM55.2587 55.9411L23.3524 36.0873C22.267 37.3859 21.2137 38.7123 20.1939 40.0653L51.8084 59.7375C52.9075 58.4259 54.0587 57.1594 55.2587 55.9411ZM51.2319 60.4354L19.6552 40.7867C18.6539 42.14 17.6858 43.5194 16.7521 44.9236L48.1923 64.4874C49.1524 63.0955 50.1666 61.7438 51.2319 60.4354ZM47.6877 65.23L16.2585 45.6731C15.3406 47.0806 14.457 48.5126 13.6089 49.9677L45.05 69.5321C45.8734 68.061 46.7536 66.6259 47.6877 65.23ZM152.257 137.298C151.274 138.678 150.238 140.016 149.152 141.31L180.769 160.984C181.784 159.639 182.765 158.268 183.713 156.872L152.257 137.298ZM42.3835 74.8728C43.0686 73.3213 43.814 71.8025 44.6168 70.3192L13.1604 50.7453C12.3259 52.207 11.5271 53.6917 10.7651 55.1981L42.3835 74.8728ZM42.023 75.7052C41.3552 77.2782 40.749 78.8838 40.2074 80.5188L8.22447 60.6172C8.89904 59.0586 9.61194 57.5205 10.362 56.004L42.023 75.7052ZM144.382 146.398C142.895 147.819 141.34 149.169 139.722 150.442L172.365 170.754C173.763 169.324 175.119 167.852 176.431 166.341L144.382 146.398ZM38.3593 87.3688C38.7856 85.3414 39.3085 83.3496 39.9232 81.3985L7.86772 61.4519C7.09201 63.2898 6.3694 65.1557 5.70182 67.0475L38.3593 87.3688ZM38.1694 88.3072C37.8219 90.0938 37.5494 91.9072 37.3551 93.7439L3.8403 72.8892C4.31813 71.2132 4.83836 69.5552 5.39977 67.9162L38.1694 88.3072ZM133.61 154.695C131.969 155.7 130.279 156.632 128.545 157.487L163.197 179.05C164.579 177.945 165.932 176.805 167.253 175.63L133.61 154.695ZM37 100.523C37 100.515 37 100.508 37 100.5C37 98.5583 37.0871 96.6371 37.2577 94.7399L3.5883 73.789C3.12081 75.489 2.69685 77.207 2.31769 78.9417L37 100.523ZM37.0091 101.585C37.038 103.311 37.1358 105.02 37.2998 106.709L1.2977 84.307C1.53884 82.8183 1.8127 81.3405 2.1185 79.8744L37.0091 101.585ZM121.792 160.342C119.685 161.092 117.527 161.733 115.324 162.26L153.411 185.96C154.986 184.983 156.533 183.963 158.048 182.902L121.792 160.342ZM38.5449 114.484C38.0562 112.31 37.679 110.093 37.4198 107.841L1.14657 85.2696C0.869316 87.0934 0.641079 88.9332 0.463245 90.7878L38.5449 114.484ZM38.8363 115.722C39.4566 118.244 40.2275 120.706 41.139 123.098L0.043146 97.5264C0.0991357 95.5995 0.209366 93.6861 0.372362 91.7879L38.8363 115.722ZM41.6917 124.499L0.0182061 98.5675C0.0060868 99.2102 0 99.8543 0 100.5C0 102.203 0.0423546 103.896 0.126068 105.578L47.0276 134.763C44.952 131.53 43.1616 128.097 41.6917 124.499ZM48.2307 136.568L0.186439 106.672C0.314879 108.792 0.509036 110.894 0.766898 112.977L62.5881 151.445C57.0318 147.304 52.176 142.275 48.2307 136.568ZM71.6396 157.078C77.6773 160.164 84.274 162.311 91.2376 163.329L139.3 193.236C137.358 194.05 135.384 194.804 133.382 195.497L71.6396 157.078ZM93.379 163.605C95.7167 163.866 98.0927 164 100.5 164C101.988 164 103.465 163.949 104.928 163.848L146.642 189.805C144.572 190.877 142.46 191.878 140.309 192.807L93.379 163.605ZM106.431 163.727L147.564 189.322C149.257 188.422 150.922 187.476 152.556 186.485L114.082 162.544C111.583 163.088 109.03 163.486 106.431 163.727ZM127.588 157.949C126.046 158.677 124.469 159.346 122.862 159.951L158.843 182.34C160.066 181.467 161.269 180.567 162.45 179.641L127.588 157.949ZM138.965 151.028C137.511 152.137 136.007 153.184 134.458 154.167L167.948 175.006C169.236 173.839 170.493 172.64 171.719 171.409L138.965 151.028ZM148.563 142C147.441 143.299 146.267 144.551 145.045 145.754L177.023 165.653C178.122 164.363 179.189 163.045 180.223 161.701L148.563 142ZM155.475 132.301C154.63 133.76 153.728 135.181 152.773 136.563L184.214 156.127C185.145 154.729 186.042 153.305 186.904 151.858L155.475 132.301ZM155.92 131.521L187.36 151.085C188.208 149.632 189.021 148.156 189.797 146.658L158.219 127.009C157.511 128.547 156.744 130.052 155.92 131.521ZM100.5 -0.00012207C149.089 -0.00012207 189.625 34.4819 198.971 80.3103L75.1073 3.23536C83.2183 1.12375 91.7279 -0.00012207 100.5 -0.00012207ZM125.811 197.786C127.998 197.218 130.157 196.579 132.284 195.87L0.915954 114.126C1.21954 116.366 1.59691 118.582 2.04554 120.772L125.811 197.786ZM124.603 198.091C116.881 199.992 108.808 201 100.5 201C52.371 201 12.1437 167.168 2.30263 121.989L124.603 198.091Z" fill="url(#paint0_linear_50_46)" fill-opacity="0.5"/>
<defs>
<linearGradient id="paint0_linear_50_46" x1="24.4061" y1="40.2355" x2="156.406" y2="183.236" gradientUnits="userSpaceOnUse">
<stop stop-color="#FF662C"/>
<stop offset="0.49" stop-color="#4086EC"/>
<stop offset="1" stop-color="#222222"/>
</linearGradient>
</defs>
</svg>
